<svg width="120" height="120" viewBox="0 0 120 120" fill="none" xmlns="http://www.w3.org/2000/svg">
<path fill-rule="evenodd" clip-rule="evenodd" d="M60.8147 23C61.6101 23 62.3076 23.5307 62.517 24.2958C63.5226 27.9696 64.033 31.9097 64.033 36.0061C64.033 42.0793 62.2178 48.2932 58.9212 53.5044C56.3107 57.6302 52.998 60.8122 49.6409 62.4667L49.281 62.6381V84.6846C54.2059 85.0109 58.9263 86.7191 58.9263 90.0476C58.9263 93.7737 53.0123 95.4707 47.5168 95.4707L46.9266 95.4642C41.6058 95.3469 36.1067 93.6406 36.1067 90.0476C36.1067 86.7844 40.6437 85.0785 45.4623 84.7054L45.7517 84.6846V62.6381C42.2724 61.0383 38.8146 57.7776 36.1118 53.5044C32.8152 48.2932 31 42.0793 31 36.0061C31 31.9097 31.5101 27.9696 32.516 24.2958C32.7123 23.5785 33.3374 23.0673 34.0703 23.0061L34.2182 23H60.8147ZM49.2819 88.2081V88.4941C49.2819 89.4654 48.4907 90.2529 47.5168 90.2529C46.5908 90.2529 45.8312 89.5422 45.7576 88.6384L45.7517 88.4941V88.2081C42.1844 88.4761 40.1082 89.5109 39.6826 90.0476C40.1737 90.6684 42.8662 91.9532 47.5168 91.9532C52.1668 91.9532 54.8592 90.6684 55.3504 90.0476C54.939 89.5288 52.9849 88.5445 49.6336 88.2374L49.2819 88.2081ZM59.4408 26.5175H35.5919C34.887 29.5171 34.5302 32.7022 34.5302 36.0061C34.5302 41.4239 36.1524 46.9717 39.0981 51.6287C41.4916 55.4116 44.5978 58.3316 47.5168 59.5715C50.4352 58.3316 53.5414 55.4116 55.9349 51.6287C58.8806 46.9717 60.5028 41.4239 60.5028 36.0061C60.5028 32.9564 60.1988 30.0078 59.5974 27.213L59.4408 26.5175Z" fill="#F9B42D"/>
<path fill-rule="evenodd" clip-rule="evenodd" d="M89.7004 32.0281C89.6849 31.25 89.1479 30.5793 88.3902 30.3904L64.3681 24.3928C64.6854 25.6191 64.9508 26.872 65.1629 28.1482L86.2416 33.4107C86.1951 36.4327 85.7719 39.5474 84.9825 42.6906C83.6853 47.8457 80.8144 52.739 76.898 56.4705C73.7153 59.501 70.0617 61.5414 66.9873 62.0275C64.6596 60.2705 62.5298 57.0665 61.1422 53.2337C60.9079 53.6417 60.6656 54.0451 60.4138 54.4419C59.9115 55.2371 59.3832 55.998 58.835 56.7246C60.3424 60.0093 62.3358 62.7299 64.5751 64.5256L59.2996 85.5028C58.7928 85.4109 58.2887 85.3355 57.794 85.2761C59.6599 86.4983 60.6914 88.1299 60.6914 90.0474C60.6914 90.4502 60.644 90.8323 60.5606 91.199C61.1267 91.0308 61.5929 90.579 61.7472 89.9659L61.8153 89.6937C65.1362 90.7929 66.8633 92.2648 67.1478 92.8806C66.8675 93.0765 65.9506 93.4722 63.9968 93.4722C62.7032 93.4722 61.2543 93.2963 59.7762 92.9639C59.0161 94.0554 57.8249 94.9245 56.3658 95.5873C57.0345 95.8142 57.7163 96.0143 58.399 96.1842C60.332 96.667 62.2679 96.922 63.9968 96.922C69.0033 96.922 70.253 94.9254 70.5531 93.7351C70.7969 92.7654 70.7634 90.8299 67.7967 88.7653C66.4324 87.8156 64.6475 86.9773 62.6591 86.3402L67.9339 65.3647C71.6269 64.6691 75.6966 62.3874 79.2906 58.9642C83.6741 54.7889 86.8881 49.3075 88.3412 43.5288C89.3211 39.6325 89.7778 35.7628 89.7004 32.0281Z" fill="#7B7B7B"/>
</svg>
