<svg width="120" height="120" viewBox="0 0 120 120" fill="none" xmlns="http://www.w3.org/2000/svg">
<path fill-rule="evenodd" clip-rule="evenodd" d="M32.8713 93.7577C38.5691 97.5441 45.1007 99.5068 51.779 99.5068C54.0412 99.5068 56.3033 99.2982 58.55 98.8423C81.3335 94.2871 96.2033 72.1137 91.876 49.3105C95.3271 48.9473 87.8188 49.8707 88.7993 49.7046C92.9298 70.9237 79.1331 91.5825 57.9323 95.8093C49.7871 97.4398 41.4952 95.7939 34.5737 91.1768C32.9292 90.0912 31.4237 88.8355 30.0494 87.4948C33.1106 89.0016 36.4575 89.8168 39.8816 89.8168C41.391 89.8168 42.8965 89.6662 44.4059 89.3648C56.6816 86.9037 65.4252 76.7771 66.452 65.1591C67.8533 64.5255 60.3875 64.765 63.3445 65.1591C62.3331 75.3282 54.597 84.1721 43.8037 86.3318C38.766 87.3441 33.6704 86.3782 29.4318 83.6312C25.9498 81.3825 23.429 78.1525 22.0895 74.3777C21.7845 73.3964 21.5297 72.388 21.3329 71.3757C20.0667 63.633 25.3012 56.1762 33.2303 54.5921C36.307 53.9893 39.4454 54.5612 42.0241 56.238C44.6027 57.9148 46.336 60.4648 46.9382 63.4359C47.8879 68.1766 44.6761 72.8246 39.7774 73.8059C38.9474 73.9721 38.4031 74.7873 38.5691 75.6334C38.7351 76.4602 39.5496 77.005 40.3796 76.8389C46.9537 75.5252 51.2502 69.2314 49.9686 62.8177C49.2158 59.0314 46.9845 55.7705 43.711 53.6416C40.4375 51.5282 36.5038 50.7902 32.6435 51.5591C22.8422 53.5218 16.4341 62.8796 18.3334 72.4305C18.5457 73.4891 18.8623 74.4859 19.2058 75.4673C21.5143 82.9357 26.2818 89.3493 32.8713 93.7577Z" fill="#7B7B7B"/>
<path fill-rule="evenodd" clip-rule="evenodd" d="M89.4044 22.5729L89.2361 20L83.3318 32.7689C83.332 32.7697 83.3323 32.7709 83.3326 32.7726C83.3328 32.774 83.3329 32.7757 83.3329 32.7777C83.333 32.7829 83.3322 32.7887 83.3306 32.7942C83.3299 32.7965 83.3292 32.7984 83.3286 32.7997L83.3205 32.806L83.3068 32.8173C83.2986 32.824 83.2933 32.8265 83.291 32.8274L83.2875 32.8285L83.2843 32.829C83.2821 32.8292 83.2778 32.8293 83.2711 32.8279C83.2657 32.8267 83.257 32.8241 83.2454 32.8184C81.1404 31.5937 78.6629 31.0008 76.2763 31.1057L73.155 31.2427L75.2139 33.5927C76.6616 35.2451 77.427 36.6291 77.8666 37.7856C78.3084 38.9478 78.446 39.9378 78.5805 40.9206L78.5812 40.9251L78.5813 40.9266C78.6561 41.4988 78.7428 42.1633 78.9525 42.8319L78.9565 42.8443C79.6683 45.0471 80.6648 46.5134 81.9329 47.3982C83.2061 48.2865 84.5464 48.4422 85.6184 48.4422C86.6483 48.4422 87.6649 48.2819 88.5392 48.144L88.7721 48.1074L88.7907 48.1045L88.8092 48.1011C89.198 48.0304 89.5718 47.9768 89.9398 47.9335L89.9696 47.93L89.9993 47.9252C90.2617 47.8836 90.5192 47.8594 90.8509 47.8281C90.938 47.8198 91.0309 47.8111 91.1297 47.8015L91.311 47.7836C92.8556 47.6315 94.7999 47.4402 96.3528 46.4269C98.1336 45.2649 99.1254 43.2614 99.2839 40.1843C99.3154 39.6233 99.2438 39.0148 99.1916 38.5707C99.179 38.463 99.1674 38.3648 99.1588 38.2794L99.1566 38.2577L99.1537 38.2361C99.0248 37.2499 98.8969 36.2579 99.0196 35.0191C99.1416 33.7882 99.52 32.2516 100.491 30.2753L101.886 27.4367L98.8053 28.1527C96.9803 28.5769 94.7065 29.4967 92.6711 31.4638L92.6672 31.4675C92.6637 31.471 92.6607 31.4734 92.6584 31.475C92.6566 31.4762 92.6553 31.477 92.6544 31.4775C92.6523 31.4786 92.651 31.479 92.6505 31.4791C92.6499 31.4792 92.6487 31.4794 92.6462 31.4793C92.6439 31.4791 92.6382 31.4785 92.6288 31.4752L92.6172 31.4711L92.6057 31.4673C92.6054 31.4672 92.6033 31.4661 92.6006 31.4629L92.5992 31.461C92.599 31.4606 92.5988 31.4603 92.5986 31.46C92.5982 31.4593 92.5979 31.4587 92.5976 31.4581C92.5971 31.4569 92.5966 31.4553 92.5962 31.4524L92.5947 31.4405L92.593 31.4287C92.3112 29.4315 91.5505 27.9934 90.8603 26.6887L90.8472 26.6637L90.8419 26.654C90.1176 25.3087 89.5044 24.1027 89.4044 22.5729ZM86.1821 31.833C85.4229 29.5314 85.6648 27.8826 86.2179 26.6915C86.4259 26.2436 86.688 25.8391 86.9835 25.4754C87.3398 26.4747 87.7998 27.3321 88.1978 28.0713C88.8911 29.3821 89.4177 30.4088 89.6212 31.8386C89.771 32.9936 90.5677 33.9449 91.6442 34.3091C92.7393 34.6897 93.9327 34.4206 94.7574 33.6195C95.3225 33.0736 95.9121 32.6324 96.5026 32.2758C96.2554 33.1563 96.1091 33.968 96.0343 34.7233C95.8767 36.3136 96.0442 37.5942 96.1732 38.5803L96.1763 38.6037C96.1952 38.7886 96.2135 38.9487 96.2299 39.0912C96.2746 39.4811 96.3044 39.7403 96.2885 40.018L96.2881 40.0267C96.1603 42.5187 95.4246 43.4504 94.7134 43.9145C93.8342 44.4882 92.6123 44.6395 90.8374 44.8157C90.7647 44.8228 90.6898 44.8298 90.6131 44.837C90.2809 44.8681 89.9161 44.9023 89.5601 44.9575C89.1551 45.0056 88.734 45.066 88.291 45.1462L88.1161 45.1735C87.1938 45.3181 86.4025 45.4422 85.6184 45.4422C84.8337 45.4422 84.2051 45.3255 83.6495 44.9378C83.0895 44.5471 82.3982 43.7353 81.8133 41.9284C81.6936 41.5445 81.6336 41.1319 81.5547 40.5274L81.5474 40.4738C81.4127 39.4896 81.2379 38.2115 80.6708 36.7197C80.4029 36.0147 80.0526 35.2742 79.5888 34.4941C80.3458 34.7152 81.0774 35.0259 81.7538 35.4214L81.7685 35.43L81.7834 35.4383C82.877 36.0447 84.2168 35.944 85.1989 35.1454C86.198 34.3527 86.5682 33.015 86.1834 31.8371L86.1821 31.833Z" fill="#F9B42D"/>
<path fill-rule="evenodd" clip-rule="evenodd" d="M61.6294 44.3456L59.9794 41.728L58.9465 44.6447C58.1487 46.8977 57.3193 49.7774 56.9807 52.5798C56.6508 55.3111 56.7444 58.2937 58.1412 60.4946C59.2416 62.2595 61.0164 63.2179 63.1839 63.5891L65.0051 63.9011L64.9361 62.0547C64.8876 60.7566 64.7617 59.4254 64.5005 58.0807L64.4989 58.0729C64.4978 58.0676 64.4981 58.0646 64.4987 58.0615C64.4996 58.0573 64.5018 58.0509 64.5065 58.044C64.5111 58.037 64.5161 58.0324 64.5198 58.0299C64.5215 58.0288 64.5233 58.0278 64.5256 58.0269C64.527 58.0264 64.5286 58.026 64.5307 58.0256L64.5445 58.0228L64.5516 58.0217C64.5544 58.0229 64.5581 58.0248 64.5623 58.0276C64.5711 58.0335 64.578 58.0407 64.5823 58.0469C64.5859 58.0521 64.5869 58.0555 64.5874 58.058C64.8264 59.254 64.9408 60.4736 65.0124 61.7249L65.1556 64.2287L67.2938 62.9182C68.0518 62.4536 68.9231 61.8215 69.6604 61.0296C70.3923 60.2437 71.0698 59.2162 71.2782 57.9664C71.5738 56.2215 70.8649 54.5909 70.0017 53.311C69.1214 52.0056 67.9333 50.8434 66.8784 49.948L66.8669 49.9382L66.5361 49.6688L66.5151 49.6508C65.1835 48.5157 63.1834 46.8109 61.6294 44.3456ZM59.9591 52.9396C60.1416 51.4284 60.4894 49.8631 60.9031 48.3888C62.2464 49.955 63.6054 51.1129 64.5196 51.8919L64.6154 51.9735L64.9484 52.2448C65.8971 53.0512 66.8523 54.0065 67.5145 54.9883C68.1959 55.9989 68.4286 56.8284 68.3201 57.4663L68.3192 57.4719C68.2568 57.8475 68.0646 58.2508 67.7344 58.6713C67.6771 58.273 67.6096 57.8722 67.5292 57.4702C67.2051 55.8482 65.5965 54.7281 63.9281 55.0867C62.2961 55.4212 61.2315 57.0187 61.5561 58.6561C61.6406 59.0913 61.7093 59.5283 61.7645 59.9671C61.2918 59.6782 60.9435 59.32 60.6846 58.9038L60.6806 58.8972L60.6764 58.8907C59.8574 57.6034 59.6485 55.5105 59.9591 52.9396Z" fill="#F9B42D"/>
</svg>
