<svg width="120" height="120" viewBox="0 0 120 120" fill="none" xmlns="http://www.w3.org/2000/svg">
<path fill-rule="evenodd" clip-rule="evenodd" d="M59.9634 44.1442H59.7178C58.9179 44.1442 58.1334 44.0253 57.4681 43.819C56.6759 43.5732 55.7568 43.2402 54.9963 42.939C54.0854 42.5744 53.1664 42.1938 52.2473 41.8686C51.2017 41.4962 50.1163 41.2821 49.0155 41.155C48.2945 41.0757 47.5815 41.0281 46.8528 41.0281C46.2111 41.0281 45.5771 41.0521 44.9354 41.0997C43.3193 41.2263 41.7272 41.512 40.1823 42.0114C37.1327 42.9944 34.5499 44.6913 32.3795 47.0382C30.0741 49.5515 28.5373 52.4772 27.6422 55.7598C26.0578 61.6192 26.517 68.1604 28.1172 73.9722C28.9253 76.9057 29.9472 79.7524 31.2702 82.4956C32.6406 85.3497 34.2091 88.0776 36.0708 90.6304C36.9188 91.796 37.8297 92.906 38.8435 93.9289C39.9684 95.0624 41.1806 96.0535 42.5828 96.8228C44.1672 97.6869 46.0208 98.0756 47.8272 97.9645C49.7837 97.8456 51.4791 97.021 53.2851 96.3392C53.9427 96.0934 54.608 95.8553 55.2737 95.6493C56.3274 95.3164 57.4047 95.0782 58.5137 94.9436C58.9968 94.8882 59.488 94.8642 59.9634 94.8642H59.9952C60.4783 94.8642 60.9695 94.8882 61.4449 94.9436C62.5458 95.0705 63.6234 95.3083 64.6848 95.6493C66.0236 96.0693 67.3306 96.5851 68.6299 97.1321C71.965 98.5196 75.6251 98.139 78.5958 96.0853C79.5067 95.4588 80.3387 94.7217 81.115 93.9447C82.1288 92.9219 83.0398 91.8119 83.8877 90.6463C85.749 88.0853 87.3176 85.3578 88.6881 82.5116C91.3261 77.0326 92.982 71.0621 93.2118 64.9731C93.3224 61.8728 93.1243 58.7806 92.3163 55.7756C91.4293 52.493 89.8922 49.5673 87.579 47.054C85.4086 44.699 82.8259 43.0025 79.7759 42.0273C78.2314 41.5275 76.647 41.2344 75.0228 41.1156C74.3814 41.0679 73.7475 41.0439 73.1057 41.0439C72.3851 41.0439 71.6718 41.0757 70.943 41.1709C69.8422 41.3057 68.7568 41.512 67.7109 41.8845C66.784 42.2174 65.8731 42.5902 64.9622 42.9549C64.2017 43.2643 63.2749 43.5972 62.4905 43.8349C61.8328 44.0412 61.0406 44.1601 60.2407 44.1601C60.1297 44.1442 60.0427 44.1442 59.9634 44.1442Z" stroke="#F9B42D" stroke-width="3"/>
<path fill-rule="evenodd" clip-rule="evenodd" d="M70.856 28.2206C67.7665 27.9353 64.5738 28.9817 62.2054 31.3522C62.1338 31.4238 62.0549 31.5032 61.9833 31.5822V25.0015C61.9833 23.8993 61.0883 23.0034 59.987 23.0034H59.9475C58.8463 23.0034 57.9512 23.8993 57.9512 25.0015V39.7726C57.9512 39.7726 58.1098 39.8203 58.1809 39.8443C61.4209 40.8508 65.4376 39.1621 67.719 36.8787C70.0875 34.5078 71.1333 31.3209 70.856 28.2206Z" stroke="#8D8D8D" stroke-width="3"/>
</svg>
