<svg width="30" height="54" viewBox="0 0 30 54" fill="none" xmlns="http://www.w3.org/2000/svg">
<path d="M14.0625 0C16.3086 0 18.3594 0.488281 20.2148 1.46484C22.0703 2.34375 23.6816 3.61328 25.0488 5.27344C26.416 6.93359 27.4414 8.88672 28.125 11.1328C28.9062 13.3789 29.2969 15.7715 29.2969 18.3105C29.2969 23.3887 28.1738 28.0762 25.9277 32.373C23.6816 36.6699 21.2402 40.3809 18.6035 43.5059C15.4785 47.2168 11.9629 50.6348 8.05664 53.7598L3.80859 49.8047C4.6875 49.2188 5.71289 48.291 6.88477 47.0215C8.1543 45.6543 9.27734 44.1406 10.2539 42.4805C11.3281 40.8203 12.207 39.0625 12.8906 37.207C13.6719 35.3516 14.0625 33.5449 14.0625 31.7871C14.0625 30.6152 13.3301 29.6387 11.8652 28.8574C10.4004 27.9785 8.78906 26.9531 7.03125 25.7812C5.27344 24.6094 3.66211 23.1445 2.19727 21.3867C0.732422 19.5312 0 16.9922 0 13.7695C0 11.9141 0.390625 10.1562 1.17188 8.49609C1.95312 6.83594 2.97852 5.37109 4.24805 4.10156C5.61523 2.83203 7.12891 1.85547 8.78906 1.17188C10.5469 0.390625 12.3047 0 14.0625 0Z" fill="#F9B42D"/>
</svg>
