<svg width="30" height="54" viewBox="0 0 30 54" fill="none" xmlns="http://www.w3.org/2000/svg">
<path d="M16.4062 53.3203C14.1602 53.3203 12.0117 52.8809 9.96094 52.002C8.00781 51.123 6.29883 49.9023 4.83398 48.3398C3.36914 46.6797 2.19727 44.7754 1.31836 42.627C0.439453 40.3809 0 37.9395 0 35.3027C0 30.0293 1.17188 25.2441 3.51562 20.9473C5.95703 16.6504 8.59375 12.9395 11.4258 9.81445C14.7461 6.20117 18.6035 2.92969 22.998 0L27.2461 3.80859C26.3672 4.6875 25.293 5.81055 24.0234 7.17773C22.7539 8.54492 21.5332 10.0586 20.3613 11.7188C19.2871 13.2812 18.3594 14.9414 17.5781 16.6992C16.7969 18.3594 16.4062 20.0684 16.4062 21.8262C16.4062 23.291 17.0898 24.5117 18.457 25.4883C19.9219 26.4648 21.4844 27.5391 23.1445 28.7109C24.8047 29.7852 26.3184 31.1523 27.6855 32.8125C29.1504 34.4727 29.8828 36.8164 29.8828 39.8438C29.8828 41.6992 29.541 43.457 28.8574 45.1172C28.1738 46.7773 27.1973 48.2422 25.9277 49.5117C24.7559 50.6836 23.3398 51.6113 21.6797 52.2949C20.0195 52.9785 18.2617 53.3203 16.4062 53.3203Z" fill="#F9B42D"/>
</svg>
