<svg width="120" height="120" viewBox="0 0 120 120" fill="none" xmlns="http://www.w3.org/2000/svg">
<path fill-rule="evenodd" clip-rule="evenodd" d="M59.5 20L106 43.9253H95.186C95.186 42.5721 91.9583 41.4751 87.9767 41.4751C83.9952 41.4751 80.7674 42.5721 80.7674 43.9253C80.7674 42.5721 77.5397 41.4751 73.5581 41.4751C69.5766 41.4751 66.3488 42.5721 66.3488 43.9253C66.3488 42.5721 63.3148 41.4751 59.5721 41.4751C55.8294 41.4751 52.7953 42.5721 52.7953 43.9253H52.3628C52.3628 42.5721 49.3287 41.4751 45.586 41.4751C41.9393 41.4751 38.9654 42.5165 38.8152 43.8217L38.8093 43.9253C38.8093 42.5721 35.7753 41.4751 32.0326 41.4751C28.2899 41.4751 25.2558 42.5721 25.2558 43.9253H13L59.5 20Z" fill="#EAAD34"/>
<path fill-rule="evenodd" clip-rule="evenodd" d="M20.113 44.646L19.8149 45.3338L19.5717 45.9269L19.3277 46.5463C18.3429 49.0937 16.6892 53.9508 15.9096 59.5633L15.8229 60.2176L15.7406 60.8949L15.6607 61.6055C14.553 71.8264 13.8926 93.3024 13.723 99.3715L13.6793 101H13V44.646H20.113ZM106.048 44.646V101H105.369L105.176 94.4484L104.996 89.2352L104.81 84.4492C104.443 75.5563 103.899 65.3356 103.188 59.9323L103.138 59.5633C101.988 51.2824 98.9349 44.646 98.9349 44.646H106.048Z" fill="#7A7A7A"/>
</svg>
