<svg width="120" height="120" viewBox="0 0 120 120" fill="none" xmlns="http://www.w3.org/2000/svg">
<path fill-rule="evenodd" clip-rule="evenodd" d="M8.20783 69.9781H24.6702L26.8921 87.9664H28.9593V63.9861H8.60728L6.63749 32H3V87.9664H6.63749L8.20783 69.9781Z" fill="#F9B42D"/>
<path fill-rule="evenodd" clip-rule="evenodd" d="M9.99287 61.9847H27.9656C28.5224 61.9847 28.9593 61.5349 28.9593 60.9902C28.9593 60.4329 28.5224 59.9832 27.9656 59.9832H9.99287C9.43614 59.9832 8.98676 60.4329 8.98676 60.9902C8.98676 61.5349 9.43614 61.9847 9.99287 61.9847Z" fill="#F9B42D"/>
<path fill-rule="evenodd" clip-rule="evenodd" d="M110.742 63.9861H88.8768V87.9664H92.4568L94.6813 69.9781H111.141L112.711 87.9664H116.848V32H112.711L110.742 63.9861Z" fill="#F9B42D"/>
<path fill-rule="evenodd" clip-rule="evenodd" d="M88.8768 60.9902C88.8768 61.5349 89.3261 61.9847 89.8829 61.9847H107.856C108.412 61.9847 108.849 61.5349 108.849 60.9902C108.849 60.4329 108.412 59.9832 107.856 59.9832H89.8829C89.3261 59.9832 88.8768 60.4329 88.8768 60.9902Z" fill="#F9B42D"/>
<path fill-rule="evenodd" clip-rule="evenodd" d="M20.7381 45.9978H36.9583V87.9663H40.039L42.4382 53.9912H75.605L78.0042 87.9663H80.8903V45.9978H99.1077C100.084 45.9978 100.863 45.2057 100.863 44.2312V43.7515C100.863 42.7845 100.084 41.9949 99.1077 41.9949H20.7381C19.7644 41.9949 18.973 42.7845 18.973 43.7515V44.2312C18.973 45.2057 19.7644 45.9978 20.7381 45.9978ZM75.0383 45.9978L75.3229 49.9883H42.7203L43.0024 45.9978H75.0383Z" fill="#7B7B7B"/>
</svg>
